max v2;#N vpatcher 734 317 1401 781;#P window setfont "Sans Serif" 9.;#P window linecount 1;#P newex 546 30 96 196617 receive ramp_time;#P newex 73 33 115 196617 receive~ source_signal;#P message 146 129 40 196617 50;#P newex 527 62 62 196617 prepend set;#N comlet Ramp time (default = 500ms);#P inlet 527 31 15 0;#P newex 284 220 40 196617 line 0.;#P message 320 186 40 196617 50;#N comlet Gain (dB);#P inlet 284 103 15 0;#P newex 113 192 40 196617 line;#P number 419 232 35 9 0 0 0 3 0 0 0 221 221 221 222 222 222 0 0 0;#N comlet Q (default = 10);#P inlet 419 204 15 0;#P flonum 284 241 65 9 0 0 0 3 0 0 0 221 221 221 222 222 222 0 0 0;#P newex 73 332 95 196617 reson~ 200 0.5 10;#P newex 284 147 34 196617 dbtoa;#P flonum 284 126 45 9 0 0 0 3 0 0 0 221 221 221 222 222 222 0 0 0;#P flonum 113 215 40 9 0 0 0 3 0 0 0 221 221 221 222 222 222 0 0 0;#N comlet Filtered source signal;#P outlet 73 364 15 0;#N comlet Frequency;#P inlet 113 60 15 0;#P window linecount 3;#P comment 145 55 192 196617 This patch accepts the source signal \, and filters it according to the frequency and dB gain inputs it receives.;#P window linecount 7;#P comment 156 169 100 196617 The line objects interpolate between the previous and the target formant. The slide time can be set to 0 if this effect is undesired.;#P window linecount 4;#P comment 456 232 100 196617 The quality of the resonator has default value 10 \, but this can be adjusted.;#P window linecount 5;#P comment 401 29 122 196617 Ramp time can be adjusted globally as well \, but a local adjustment takes precedent (happens later);#P connect 20 0 9 0;#P connect 9 0 5 0;#P fasten 10 0 9 1 289 266 106 266;#P connect 4 0 13 0;#P connect 13 0 6 0;#P fasten 19 0 13 1 151 167 133 167;#P fasten 6 0 9 2 118 256 134 256;#P fasten 18 0 19 0 532 99 151 99;#P fasten 4 0 19 0 118 94 151 94;#P fasten 12 0 9 3 424 275 162 275;#P connect 14 0 7 0;#P connect 7 0 8 0;#P connect 8 0 16 0;#P connect 16 0 10 0;#P fasten 15 0 16 1 325 209 304 209;#P fasten 8 0 15 0 289 170 325 170;#P fasten 18 0 15 0 532 174 325 174;#P connect 11 0 12 0;#P fasten 21 0 18 0 551 55 532 55;#P connect 17 0 18 0;#P pop;