max v2;#N vpatcher 332 44 1275 638;#P origin -101 23;#P window setfont "Sans Serif" 9.;#P flonum 651 93 35 9 0. 10. 3 3 0 0 0 221 221 221 222 222 222 0 0 0;#P flonum 711 122 73 9 0. 0.06 3 3 0 0 0 221 221 221 222 222 222 0 0 0;#P number 591 73 35 9 0 0 0 3 0 0 0 221 221 221 222 222 222 0 0 0;#P window linecount 2;#P comment 690 93 100 196617 Frequency of vibrato (usually 5-7 Hz);#P comment 730 141 150 196617 Amount of vibrato (usually 3-6% of fundamental frequency);#P window linecount 1;#P comment 627 72 100 196617 Sung frequency;#N vpatcher 443 165 844 689;#P origin 0 27;#P inlet 205 111 15 0;#P inlet 127 62 15 0;#P inlet 62 22 15 0;#P window setfont "Sans Serif" 9.;#P flonum 127 83 35 9 0. 10. 3 3 0 0 0 221 221 221 222 222 222 0 0 0;#P window linecount 0;#P newex 127 395 101 196617 send~ source_signal;#P button 205 160 15 0;#P flonum 205 132 73 9 0. 0.06 3 3 0 0 0 221 221 221 222 222 222 0 0 0;#P newex 144 196 47 196617 * 0.045;#P flonum 144 229 35 9 0 0 0 3 0 0 0 221 221 221 222 222 222 0 0 0;#P newex 127 254 27 196617 *~;#P newex 127 287 64 196617 +~ 200;#P newex 127 133 49 196617 cycle~ 7;#P newex 127 314 46 196617 phasor~;#P flonum 158 336 35 9 0 0 0 3 0 0 0 221 221 221 222 222 222 0 0 0;#P newex 127 365 41 196617 *~ 0.3;#P number 62 43 35 9 0 0 0 3 0 0 0 221 221 221 222 222 222 0 0 0;#P window linecount 2;#P comment 166 83 100 196617 Frequency of vibrato (usually 5-7 Hz);#P comment 224 151 150 196617 Amount of vibrato (usually 3-6% of fundamental frequency);#P window linecount 1;#P comment 98 42 100 196617 Sung frequency;#P connect 16 0 3 0;#P connect 17 0 15 0;#P connect 15 0 7 0;#P connect 7 0 9 0;#P connect 9 0 8 0;#P connect 8 0 6 0;#P connect 6 0 4 0;#P connect 4 0 14 0;#P fasten 3 0 11 0 67 177 149 177;#P connect 13 0 11 0;#P connect 11 0 10 0;#P connect 10 0 9 1;#P connect 5 0 4 1;#P connect 12 0 11 1;#P fasten 3 0 8 1 67 276 186 276;#P connect 18 0 12 0;#P connect 12 0 13 0;#P pop;#P newobj 591 148 131 196617 patcher impulse_generator;#P number 592 248 35 9 0 0 0 3 0 0 0 221 221 221 222 222 222 0 0 0;#P newex 592 222 96 196617 receive ramp_time;#N vpatcher 20 74 531 448;#P window setfont "Sans Serif" 9.;#P newex 372 64 62 196617 prepend set;#P newex 372 41 107 196617 receive ramp_setting;#P message 372 89 50 196617 61;#P newex 372 112 82 196617 send ramp_time;#P message 316 157 14 196617 0;#P newex 316 180 82 196617 send ramp_time;#P newex 232 180 62 196617 prepend set;#P window linecount 1;#P message 130 135 14 196617 1;#P window linecount 0;#P message 115 135 14 196617 0;#P user gswitch2 202 210 39 32 0 0;#P message 232 154 14 196617 0;#P newex 232 129 52 196617 select 32;#P number 194 129 35 9 0 0 0 3 0 0 0 221 221 221 222 222 222 0 0 0;#P newex 232 103 40 196617 key;#P outlet 88 278 15 0;#P outlet 34 277 15 0;#P newex 91 34 107 196617 receive consonant_on;#P message 9 105 40 196617 0.1 10;#P message 51 105 49 196617 128 100;#P newex 34 137 40 196617 line;#P newex 108 53 90 196617 receive vowel_on;#P connect 4 0 3 0;#P connect 3 0 1 0;#P connect 2 0 1 0;#P fasten 11 1 5 0 236 252 39 252;#P connect 1 0 5 0;#P connect 0 0 2 0;#P fasten 11 0 6 0 207 244 93 244;#P connect 4 0 12 0;#P connect 0 0 13 0;#P connect 7 0 8 0;#P connect 13 0 11 0;#P connect 12 0 11 0;#P connect 14 0 11 1;#P connect 7 0 9 0;#P connect 9 0 10 0;#P connect 10 0 14 0;#P connect 9 0 16 0;#P connect 16 0 15 0;#P connect 19 0 20 0;#P connect 20 0 18 0;#P connect 0 0 18 0;#P connect 18 0 17 0;#P pop;#P newobj 60 199 122 196617 patcher volume_controls;#P user gain~ 226 244 24 100 158 0 1.071519 7.94321 10.;#P newex 226 224 72 196617 expr 128-$i1;#P user gain~ 197 244 24 100 158 0 1.071519 7.94321 10.;#P newex 551 439 79 196617 receive display;#N vpatcher 612 52 1130 776;#P origin 31 14;#P window setfont "Sans Serif" 9.;#P newex 266 476 41 196617 *~ 0.5;#P window linecount 1;#P message 183 117 14 196617 1;#P button 183 99 15 0;#P message 316 156 14 196617 2;#P newex 216 517 61 196617 selector~ 2;#P button 316 131 15 0;#P message 299 98 25 196617 /g/;#P message 271 98 26 196617 /v/;#P message 245 98 25 196617 /z/;#P comment 442 182 47 196617 Voiced;#P comment 447 261 31 196617 /g/;#P comment 446 222 29 196617 /v/;#P comment 445 204 38 196617 /z/;#P comment 448 242 24 196617 ?;#P newex 310 475 41 196617 *~ 0.8;#P newex 310 448 87 196617 onepole~ 250. Hz;#P newex 310 418 115 196617 receive~ source_signal;#P button 73 351 15 0;#P newex 73 428 93 196617 send consonant_on;#P message 316 260 70 196617 0.3 4000 4.5;#P message 316 222 70 196617 0.1 1200 0.4;#P message 316 202 70 196617 0.3 6000 4.5;#P message 316 241 70 196617 0.1 1000 2.5;#P newex 241 298 104 196617 reson~ 0.5 6000 1.5;#N comlet Filtered noise;#P outlet 216 582 15 0;#P flonum 272 352 35 9 0 0 0 3 0 0 0 221 221 221 222 222 222 0 0 0;#P newex 241 388 41 196617 *~ 0.3;#P newex 241 265 39 196617 noise~;#P newex 91 351 65 196617 send display;#P message 66 270 25 196617 /h/;#P message 91 251 32 196617 /sh/;#P message 40 289 24 196617 /f/;#P message 19 313 25 196617 /s/;#P newex 91 329 62 196617 prepend set;#P number 84 68 35 9 0 0 0 3 0 0 0 221 221 221 222 222 222 0 0 0;#P newex 120 67 194 196617 select 115 102 104 83 122 118 103;#P newex 120 30 40 196617 key;#P window linecount 2;#P comment 163 29 159 196617 Selects these keys \, in this order: s \, f \, h \, S // z v g;#P window linecount 4;#P comment 93 370 100 196617 Send the phonemes out to the main display as they are typed in.;#P window linecount 1;#P comment 390 260 100 196617 /sh/;#P comment 389 221 100 196617 /f/;#P comment 388 203 100 196617 /s/;#P comment 391 241 100 196617 /h/;#P window linecount 4;#P comment 73 446 100 196617 Whenever a consonant event occurs \, alert the volume controls.;#P user panel 11 248 180 249;#X brgb 208 173 173;#X frgb 0 0 0;#X border 0;#X rounded 50;#X shadow 0;#X done;#P window linecount 1;#P comment 381 181 51 196617 Unvoiced;#P window linecount 0;#P comment 354 475 108 196617 For voiced fricatives \, we add a low-passed version of the glottal excitation signal \, to give a low voicing bar.;#P fasten 11 0 14 0 125 119 24 119;#P fasten 11 1 15 0 151 126 45 126;#P fasten 11 2 17 0 177 131 71 131;#P fasten 13 0 29 0 78 346;#P connect 29 0 28 0;#P connect 10 0 12 0;#P fasten 11 3 16 0 203 136 96 136;#P fasten 40 0 13 0 304 158 96 158;#P fasten 39 0 13 0 276 151 96 151;#P fasten 38 0 13 0 250 146 96 146;#P connect 17 0 13 0;#P connect 16 0 13 0;#P connect 15 0 13 0;#P connect 14 0 13 0;#P connect 13 0 18 0;#P connect 10 0 11 0;#P connect 11 3 44 0;#P connect 11 2 44 0;#P connect 11 1 44 0;#P connect 11 0 44 0;#P connect 44 0 45 0;#P fasten 43 0 42 0 321 181 313 181 221 272;#P fasten 45 0 42 0 188 170 221 274;#P connect 42 0 22 0;#P connect 19 0 23 0;#P connect 23 0 20 0;#P connect 20 0 42 1;#P connect 11 4 38 0;#P connect 20 0 46 0;#P connect 46 0 42 2;#P connect 32 0 42 2;#P connect 11 5 39 0;#P connect 26 0 23 1;#P connect 25 0 23 1;#P connect 24 0 23 1;#P connect 27 0 23 1;#P connect 21 0 20 1;#P connect 11 6 40 0;#P connect 30 0 31 0;#P connect 31 0 32 0;#P connect 40 0 41 0;#P connect 39 0 41 0;#P connect 38 0 41 0;#P connect 41 0 43 0;#P fasten 11 4 25 0 229 198 321 198;#P fasten 11 0 25 0 125 198 321 198;#P fasten 11 5 26 0 255 219 321 219;#P fasten 11 1 26 0 151 219 321 219;#P fasten 11 2 24 0 177 241 321 241;#P fasten 11 6 27 0 281 259 321 259;#P fasten 11 3 27 0 203 259 321 259;#P pop;#P newobj 259 191 96 196617 patcher consonants;#P window setfont "Sans Serif" 36.;#P message 551 466 166 196644 /s/;#P window setfont "Sans Serif" 9.;#N vpatcher 742 147 1680 774;#P origin 156 -12;#P window setfont "Sans Serif" 9.;#P window linecount 0;#P message 555 485 30 196617 /ih/;#P window linecount 1;#P message 612 404 225 196617 345 0 1519 -12 2090 -10 2700 -15 3100 -23;#P comment 847 405 76 196617 /ih/ bit;#P message 337 559 14 196617 1;#P button 355 527 15 0;#P newex 337 584 76 196617 send vowel_on;#P newex 372 526 65 196617 send display;#P message 529 473 25 196617 /u/;#P message 497 457 35 196617 /ow/;#P message 408 378 32 196617 /er/;#P message 353 377 32 196617 /uh/;#P message 305 432 31 196617 /iy/;#P message 325 400 32 196617 /oo/;#P message 282 451 25 196617 /e/;#P message 266 473 25 196617 /a/;#P message 466 435 33 196617 /ay/;#P message 385 360 24 196617 /j/;#P message 438 404 30 196617 /w/;#P newex 372 500 62 196617 prepend set;#P number 242 71 35 9 0 0 0 3 0 0 0 221 221 221 222 222 222 0 0 0;#P newex 278 70 265 196617 select 97 101 105 111 117 106 114 119 121 79 85 73;#P newex 278 33 40 196617 key;#P message 78 205 26 196617 130;#P newex 21 204 55 196617 delay 200;#P button 21 178 15 0;#P message 77 396 20 196617 50;#P newex 20 395 55 196617 delay 200;#P button 19 368 15 0;#P newex 101 450 82 196617 send ramp_time;#P comment 20 350 49 196617 /y/ yet;#P message 77 295 20 196617 50;#P newex 20 294 55 196617 delay 100;#P button 19 267 15 0;#P comment 20 249 49 196617 /w/ wet;#N comlet Formant specifications;#P outlet 612 445 15 0;#P message 612 381 225 196617 400 0 1050 -12 2200 -19 2650 -20 3100 -29;#P message 612 359 225 196617 300 0 1600 -14 2200 -16 2700 -15 3100 -23;#P message 612 336 225 196617 415 0 1400 -10 2200 -16 2800 -18 3300 -31;#P message 612 313 219 196617 325 0 700 -12 2550 -26 2850 -22 3100 -28;#P comment 846 289 76 196617 /iy/ beet;#P comment 847 359 76 196617 /er/ bird;#P comment 846 267 76 196617 /oo/ boot;#P comment 846 335 76 196617 /u/ foot;#P comment 846 311 76 196617 /ow/ bought;#P comment 847 382 76 196617 /uh/ but;#P comment 846 245 76 196617 /e/ bet;#P message 612 291 225 196617 238 0 1741 -20 2450 -10 2900 -17 4000 -10;#P message 612 270 219 196617 360 0 750 -12 2400 -29 2675 -26 2950 -35;#P message 612 251 213 196617 400 0 1700 -9 2300 -8 2900 -11 3400 -19;#P message 612 229 219 196617 609 0 1000 -6 2450 -12 2700 -11 3240 -24;#P comment 846 225 76 196617 /a/ (hot);#P comment 20 162 100 196617 /aj/ bay;#P window linecount 2;#P comment 322 34 172 196617 Selects these keys \, in this order \; a \, e \, i \, o \, u \, // j \, r \, w \, y \, // O \, U. I;#P comment 17 121 100 196617 Some important dipthongs are here:;#P window linecount 4;#P comment 669 161 157 196617 Here are the basic vowels \, with formant frequencies taken from Dodge (p 230) and adjusted slightly to taste.;#P comment 438 501 100 196617 Send the phonemes out to the main display as they are typed in.;#P window linecount 3;#P comment 411 564 100 196617 Whenever a vowel event occurs \, alert the volume controls.;#P user panel 241 344 346 261;#X brgb 208 173 173;#X frgb 0 0 0;#X border 0;#X rounded 50;#X shadow 0;#X done;#P connect 37 7 25 0;#P connect 37 8 30 0;#P connect 25 0 26 0;#P connect 30 0 31 0;#P connect 37 5 33 0;#P connect 33 0 34 0;#P connect 25 0 27 0;#P connect 30 0 32 0;#P connect 33 0 35 0;#P fasten 27 0 29 0 82 363 106 363;#P fasten 35 0 29 0 83 253 106 253;#P fasten 32 0 29 0 82 424 106 424;#P connect 36 0 38 0;#P fasten 37 0 43 0 283 446 271 446;#P connect 36 0 37 0;#P fasten 37 1 44 0 304 422 287 422;#P fasten 37 2 46 0 325 396 310 396;#P fasten 37 3 45 0 346 388 330 388;#P fasten 53 0 54 0 360 555 342 555;#P connect 54 0 52 0;#P fasten 37 4 47 0 367 362 358 362;#P connect 39 0 53 0;#P connect 57 0 39 0;#P connect 40 0 39 0;#P connect 41 0 39 0;#P connect 42 0 39 0;#P connect 43 0 39 0;#P connect 44 0 39 0;#P connect 45 0 39 0;#P connect 46 0 39 0;#P connect 47 0 39 0;#P connect 49 0 39 0;#P connect 50 0 39 0;#P connect 48 0 39 0;#P connect 39 0 51 0;#P fasten 37 5 41 0 388 352 390 352;#P fasten 37 6 48 0 409 352 413 352;#P fasten 37 7 40 0 430 374 443 374;#P fasten 37 8 42 0 451 371 471 371;#P fasten 37 9 49 0 472 366 502 366;#P fasten 37 10 50 0 493 363 534 363;#P fasten 37 11 57 0 514 355 560 355;#P connect 37 0 8 0;#P connect 37 1 9 0;#P connect 31 0 9 0;#P connect 26 0 9 0;#P connect 33 0 9 0;#P connect 37 3 10 0;#P connect 25 0 10 0;#P connect 37 2 11 0;#P connect 34 0 11 0;#P connect 30 0 11 0;#P connect 37 9 19 0;#P connect 37 10 20 0;#P connect 37 6 21 0;#P connect 37 4 22 0;#P connect 37 11 56 0;#P connect 56 0 23 0;#P connect 22 0 23 0;#P connect 21 0 23 0;#P connect 20 0 23 0;#P connect 19 0 23 0;#P connect 11 0 23 0;#P connect 10 0 23 0;#P connect 9 0 23 0;#P connect 8 0 23 0;#P pop;#P newobj 34 60 79 196617 patcher vowels;#P number 592 180 35 9 0 0 0 3 0 0 0 221 221 221 222 222 222 0 0 0;#P newex 592 203 93 196617 send ramp_setting;#P newex 223 129 53 196617 formant;#P newex 309 129 53 196617 formant;#P newex 376 144 53 196617 formant;#P newex 119 141 53 196617 formant;#P newex 38 125 53 196617 formant;#P flonum 249 392 35 9 0 0 0 3 0 0 0 221 221 221 222 222 222 0 0 0;#P newex 218 417 41 196617 *~ 0.3;#P newex 197 198 27 196617 +~;#P newex 34 88 403 196617 unpack 0. 0. 0. 0. 0. 0. 0. 0. 0. 0.;#P user spectroscope~ 247 438 300 100 20 0 1 0 1 1 0 0 0 0 0 0;#X frgb 224 224 224;#X brgb 255 255 255;#X rgb2 0 0 0;#X rgb3 243 204 204;#X rgb4 255 0 0;#X rgb5 184 184 184;#X rgb6 0 0 0;#X rgb7 0 0 0;#X rgb8 255 255 255;#X rgb9 255 0 0;#X rgb10 255 191 0;#X rgb11 0 191 127;#X rgb12 127 0 127;#X rgb13 0 0 0;#X range 0. 1.2;#X domain 0. 22050.;#X done;#P user ezdac~ 201 473 245 506 0;#P window linecount 2;#P comment 632 34 100 196617 Control the voice parameters here:;#P window linecount 4;#P comment 697 201 196 196617 Time it takes to move between vowels. NB: it will change automatically when some dipthongs are activated \, but should go right back aftewards.;#P user panel 571 63 330 209;#X brgb 201 223 173;#X frgb 0 0 0;#X border 0;#X rounded 50;#X shadow 0;#X done;#P connect 16 0 5 0;#P connect 5 0 9 0;#P connect 5 1 9 1;#P connect 5 2 10 0;#P connect 5 3 10 1;#P fasten 9 0 6 0 43 192 202 192;#P connect 23 0 20 0;#P connect 6 0 20 0;#P connect 7 0 3 0;#P fasten 13 0 6 1 228 173 219 173;#P fasten 12 0 6 1 314 173 219 173;#P fasten 11 0 6 1 381 173 219 173;#P fasten 10 0 6 1 124 173 219 173;#P connect 22 0 7 0;#P connect 20 0 7 0;#P connect 5 4 13 0;#P fasten 20 1 21 0 216 369 223 369 223 219 231 219;#P connect 23 1 22 0;#P connect 21 0 22 0;#P connect 18 0 22 0;#P connect 7 0 3 1;#P connect 5 5 13 1;#P connect 7 0 4 0;#P connect 8 0 7 1;#P connect 5 6 12 0;#P connect 5 7 12 1;#P connect 5 8 11 0;#P connect 5 9 11 1;#P connect 19 0 17 0;#P connect 30 0 26 0;#P connect 15 0 14 0;#P connect 24 0 25 0;#P connect 32 0 26 1;#P connect 31 0 26 2;#P pop;